<mxfile host="Electron" modified="2024-02-21T12:50:58.229Z" agent="Mozilla/5.0 (Windows NT 10.0; Win64; x64) AppleWebKit/537.36 (KHTML, like Gecko) draw.io/21.7.5 Chrome/114.0.5735.289 Electron/25.8.1 Safari/537.36" etag="RIQzD2dWjaBJ0l14lTvM" version="21.7.5" type="device">
  <diagram name="PÃ¡gina-1" id="f3cX-z2quiGeBT0pw9KH">
    <mxGraphModel dx="1961" dy="656" grid="1" gridSize="10" guides="1" tooltips="1" connect="1" arrows="1" fold="1" page="1" pageScale="1" pageWidth="827" pageHeight="1169" math="0" shadow="0">
      <root>
        <mxCell id="0" />
        <mxCell id="1" parent="0" />
        <mxCell id="hN8mHS7KvsiiEOYehRs0-2" value="Proyecto" style="swimlane;fontStyle=1;align=center;verticalAlign=top;childLayout=stackLayout;horizontal=1;startSize=26;horizontalStack=0;resizeParent=1;resizeParentMax=0;resizeLast=0;collapsible=1;marginBottom=0;whiteSpace=wrap;html=1;" parent="1" vertex="1">
          <mxGeometry x="-730" y="560" width="160" height="164" as="geometry" />
        </mxCell>
        <mxCell id="hN8mHS7KvsiiEOYehRs0-3" value="- numIdentificacion: int" style="text;strokeColor=none;fillColor=none;align=left;verticalAlign=top;spacingLeft=4;spacingRight=4;overflow=hidden;rotatable=0;points=[[0,0.5],[1,0.5]];portConstraint=eastwest;whiteSpace=wrap;html=1;" parent="hN8mHS7KvsiiEOYehRs0-2" vertex="1">
          <mxGeometry y="26" width="160" height="26" as="geometry" />
        </mxCell>
        <mxCell id="1wmDrO8KFe_iI-wGE0fV-38" value="- fechaInicio: LocalDate" style="text;strokeColor=none;fillColor=none;align=left;verticalAlign=top;spacingLeft=4;spacingRight=4;overflow=hidden;rotatable=0;points=[[0,0.5],[1,0.5]];portConstraint=eastwest;whiteSpace=wrap;html=1;" vertex="1" parent="hN8mHS7KvsiiEOYehRs0-2">
          <mxGeometry y="52" width="160" height="26" as="geometry" />
        </mxCell>
        <mxCell id="1wmDrO8KFe_iI-wGE0fV-39" value="- fechaFin: LocalDate" style="text;strokeColor=none;fillColor=none;align=left;verticalAlign=top;spacingLeft=4;spacingRight=4;overflow=hidden;rotatable=0;points=[[0,0.5],[1,0.5]];portConstraint=eastwest;whiteSpace=wrap;html=1;" vertex="1" parent="hN8mHS7KvsiiEOYehRs0-2">
          <mxGeometry y="78" width="160" height="26" as="geometry" />
        </mxCell>
        <mxCell id="1wmDrO8KFe_iI-wGE0fV-40" value="- duracion: LocalTime" style="text;strokeColor=none;fillColor=none;align=left;verticalAlign=top;spacingLeft=4;spacingRight=4;overflow=hidden;rotatable=0;points=[[0,0.5],[1,0.5]];portConstraint=eastwest;whiteSpace=wrap;html=1;" vertex="1" parent="hN8mHS7KvsiiEOYehRs0-2">
          <mxGeometry y="104" width="160" height="26" as="geometry" />
        </mxCell>
        <mxCell id="1wmDrO8KFe_iI-wGE0fV-51" value="- responsable: String" style="text;strokeColor=none;fillColor=none;align=left;verticalAlign=top;spacingLeft=4;spacingRight=4;overflow=hidden;rotatable=0;points=[[0,0.5],[1,0.5]];portConstraint=eastwest;whiteSpace=wrap;html=1;" vertex="1" parent="hN8mHS7KvsiiEOYehRs0-2">
          <mxGeometry y="130" width="160" height="26" as="geometry" />
        </mxCell>
        <mxCell id="hN8mHS7KvsiiEOYehRs0-4" value="" style="line;strokeWidth=1;fillColor=none;align=left;verticalAlign=middle;spacingTop=-1;spacingLeft=3;spacingRight=3;rotatable=0;labelPosition=right;points=[];portConstraint=eastwest;strokeColor=inherit;" parent="hN8mHS7KvsiiEOYehRs0-2" vertex="1">
          <mxGeometry y="156" width="160" height="8" as="geometry" />
        </mxCell>
        <mxCell id="hN8mHS7KvsiiEOYehRs0-6" value="Grupo" style="swimlane;fontStyle=1;align=center;verticalAlign=top;childLayout=stackLayout;horizontal=1;startSize=26;horizontalStack=0;resizeParent=1;resizeParentMax=0;resizeLast=0;collapsible=1;marginBottom=0;whiteSpace=wrap;html=1;" parent="1" vertex="1">
          <mxGeometry x="-160" y="586" width="160" height="34" as="geometry" />
        </mxCell>
        <mxCell id="hN8mHS7KvsiiEOYehRs0-8" value="" style="line;strokeWidth=1;fillColor=none;align=left;verticalAlign=middle;spacingTop=-1;spacingLeft=3;spacingRight=3;rotatable=0;labelPosition=right;points=[];portConstraint=eastwest;strokeColor=inherit;" parent="hN8mHS7KvsiiEOYehRs0-6" vertex="1">
          <mxGeometry y="26" width="160" height="8" as="geometry" />
        </mxCell>
        <mxCell id="1wmDrO8KFe_iI-wGE0fV-1" value="Empleado&lt;br&gt;" style="swimlane;fontStyle=1;align=center;verticalAlign=top;childLayout=stackLayout;horizontal=1;startSize=26;horizontalStack=0;resizeParent=1;resizeParentMax=0;resizeLast=0;collapsible=1;marginBottom=0;whiteSpace=wrap;html=1;" vertex="1" parent="1">
          <mxGeometry x="-440" y="770" width="160" height="138" as="geometry" />
        </mxCell>
        <mxCell id="1wmDrO8KFe_iI-wGE0fV-2" value="- DNI: String" style="text;strokeColor=none;fillColor=none;align=left;verticalAlign=top;spacingLeft=4;spacingRight=4;overflow=hidden;rotatable=0;points=[[0,0.5],[1,0.5]];portConstraint=eastwest;whiteSpace=wrap;html=1;" vertex="1" parent="1wmDrO8KFe_iI-wGE0fV-1">
          <mxGeometry y="26" width="160" height="26" as="geometry" />
        </mxCell>
        <mxCell id="1wmDrO8KFe_iI-wGE0fV-47" value="- nombre: String" style="text;strokeColor=none;fillColor=none;align=left;verticalAlign=top;spacingLeft=4;spacingRight=4;overflow=hidden;rotatable=0;points=[[0,0.5],[1,0.5]];portConstraint=eastwest;whiteSpace=wrap;html=1;" vertex="1" parent="1wmDrO8KFe_iI-wGE0fV-1">
          <mxGeometry y="52" width="160" height="26" as="geometry" />
        </mxCell>
        <mxCell id="1wmDrO8KFe_iI-wGE0fV-48" value="- NUSS: String" style="text;strokeColor=none;fillColor=none;align=left;verticalAlign=top;spacingLeft=4;spacingRight=4;overflow=hidden;rotatable=0;points=[[0,0.5],[1,0.5]];portConstraint=eastwest;whiteSpace=wrap;html=1;" vertex="1" parent="1wmDrO8KFe_iI-wGE0fV-1">
          <mxGeometry y="78" width="160" height="26" as="geometry" />
        </mxCell>
        <mxCell id="1wmDrO8KFe_iI-wGE0fV-49" value="- direccion: String" style="text;strokeColor=none;fillColor=none;align=left;verticalAlign=top;spacingLeft=4;spacingRight=4;overflow=hidden;rotatable=0;points=[[0,0.5],[1,0.5]];portConstraint=eastwest;whiteSpace=wrap;html=1;" vertex="1" parent="1wmDrO8KFe_iI-wGE0fV-1">
          <mxGeometry y="104" width="160" height="26" as="geometry" />
        </mxCell>
        <mxCell id="1wmDrO8KFe_iI-wGE0fV-3" value="" style="line;strokeWidth=1;fillColor=none;align=left;verticalAlign=middle;spacingTop=-1;spacingLeft=3;spacingRight=3;rotatable=0;labelPosition=right;points=[];portConstraint=eastwest;strokeColor=inherit;" vertex="1" parent="1wmDrO8KFe_iI-wGE0fV-1">
          <mxGeometry y="130" width="160" height="8" as="geometry" />
        </mxCell>
        <mxCell id="1wmDrO8KFe_iI-wGE0fV-5" value="director" style="swimlane;fontStyle=1;align=center;verticalAlign=top;childLayout=stackLayout;horizontal=1;startSize=26;horizontalStack=0;resizeParent=1;resizeParentMax=0;resizeLast=0;collapsible=1;marginBottom=0;whiteSpace=wrap;html=1;" vertex="1" parent="1">
          <mxGeometry x="-670" y="1020" width="160" height="34" as="geometry" />
        </mxCell>
        <mxCell id="1wmDrO8KFe_iI-wGE0fV-7" value="" style="line;strokeWidth=1;fillColor=none;align=left;verticalAlign=middle;spacingTop=-1;spacingLeft=3;spacingRight=3;rotatable=0;labelPosition=right;points=[];portConstraint=eastwest;strokeColor=inherit;" vertex="1" parent="1wmDrO8KFe_iI-wGE0fV-5">
          <mxGeometry y="26" width="160" height="8" as="geometry" />
        </mxCell>
        <mxCell id="1wmDrO8KFe_iI-wGE0fV-9" value="programador" style="swimlane;fontStyle=1;align=center;verticalAlign=top;childLayout=stackLayout;horizontal=1;startSize=26;horizontalStack=0;resizeParent=1;resizeParentMax=0;resizeLast=0;collapsible=1;marginBottom=0;whiteSpace=wrap;html=1;" vertex="1" parent="1">
          <mxGeometry x="-250" y="1020" width="160" height="60" as="geometry" />
        </mxCell>
        <mxCell id="1wmDrO8KFe_iI-wGE0fV-10" value="- Lenguajes: String" style="text;strokeColor=none;fillColor=none;align=left;verticalAlign=top;spacingLeft=4;spacingRight=4;overflow=hidden;rotatable=0;points=[[0,0.5],[1,0.5]];portConstraint=eastwest;whiteSpace=wrap;html=1;" vertex="1" parent="1wmDrO8KFe_iI-wGE0fV-9">
          <mxGeometry y="26" width="160" height="26" as="geometry" />
        </mxCell>
        <mxCell id="1wmDrO8KFe_iI-wGE0fV-11" value="" style="line;strokeWidth=1;fillColor=none;align=left;verticalAlign=middle;spacingTop=-1;spacingLeft=3;spacingRight=3;rotatable=0;labelPosition=right;points=[];portConstraint=eastwest;strokeColor=inherit;" vertex="1" parent="1wmDrO8KFe_iI-wGE0fV-9">
          <mxGeometry y="52" width="160" height="8" as="geometry" />
        </mxCell>
        <mxCell id="1wmDrO8KFe_iI-wGE0fV-13" value="analista" style="swimlane;fontStyle=1;align=center;verticalAlign=top;childLayout=stackLayout;horizontal=1;startSize=26;horizontalStack=0;resizeParent=1;resizeParentMax=0;resizeLast=0;collapsible=1;marginBottom=0;whiteSpace=wrap;html=1;" vertex="1" parent="1">
          <mxGeometry x="-450" y="1020" width="180" height="60" as="geometry" />
        </mxCell>
        <mxCell id="1wmDrO8KFe_iI-wGE0fV-14" value="- anyosExperiencia: LocalTime" style="text;strokeColor=none;fillColor=none;align=left;verticalAlign=top;spacingLeft=4;spacingRight=4;overflow=hidden;rotatable=0;points=[[0,0.5],[1,0.5]];portConstraint=eastwest;whiteSpace=wrap;html=1;" vertex="1" parent="1wmDrO8KFe_iI-wGE0fV-13">
          <mxGeometry y="26" width="180" height="26" as="geometry" />
        </mxCell>
        <mxCell id="1wmDrO8KFe_iI-wGE0fV-15" value="" style="line;strokeWidth=1;fillColor=none;align=left;verticalAlign=middle;spacingTop=-1;spacingLeft=3;spacingRight=3;rotatable=0;labelPosition=right;points=[];portConstraint=eastwest;strokeColor=inherit;" vertex="1" parent="1wmDrO8KFe_iI-wGE0fV-13">
          <mxGeometry y="52" width="180" height="8" as="geometry" />
        </mxCell>
        <mxCell id="1wmDrO8KFe_iI-wGE0fV-17" value="Tarea" style="swimlane;fontStyle=1;align=center;verticalAlign=top;childLayout=stackLayout;horizontal=1;startSize=26;horizontalStack=0;resizeParent=1;resizeParentMax=0;resizeLast=0;collapsible=1;marginBottom=0;whiteSpace=wrap;html=1;" vertex="1" parent="1">
          <mxGeometry x="-440" y="560" width="160" height="86" as="geometry" />
        </mxCell>
        <mxCell id="1wmDrO8KFe_iI-wGE0fV-18" value="- field: type" style="text;strokeColor=none;fillColor=none;align=left;verticalAlign=top;spacingLeft=4;spacingRight=4;overflow=hidden;rotatable=0;points=[[0,0.5],[1,0.5]];portConstraint=eastwest;whiteSpace=wrap;html=1;" vertex="1" parent="1wmDrO8KFe_iI-wGE0fV-17">
          <mxGeometry y="26" width="160" height="26" as="geometry" />
        </mxCell>
        <mxCell id="1wmDrO8KFe_iI-wGE0fV-19" value="" style="line;strokeWidth=1;fillColor=none;align=left;verticalAlign=middle;spacingTop=-1;spacingLeft=3;spacingRight=3;rotatable=0;labelPosition=right;points=[];portConstraint=eastwest;strokeColor=inherit;" vertex="1" parent="1wmDrO8KFe_iI-wGE0fV-17">
          <mxGeometry y="52" width="160" height="8" as="geometry" />
        </mxCell>
        <mxCell id="1wmDrO8KFe_iI-wGE0fV-20" value="+ method(type): type" style="text;strokeColor=none;fillColor=none;align=left;verticalAlign=top;spacingLeft=4;spacingRight=4;overflow=hidden;rotatable=0;points=[[0,0.5],[1,0.5]];portConstraint=eastwest;whiteSpace=wrap;html=1;" vertex="1" parent="1wmDrO8KFe_iI-wGE0fV-17">
          <mxGeometry y="60" width="160" height="26" as="geometry" />
        </mxCell>
        <mxCell id="1wmDrO8KFe_iI-wGE0fV-21" value="" style="endArrow=block;endSize=16;endFill=0;html=1;rounded=0;exitX=0.5;exitY=0;exitDx=0;exitDy=0;entryX=0.25;entryY=1;entryDx=0;entryDy=0;" edge="1" parent="1" source="1wmDrO8KFe_iI-wGE0fV-5" target="1wmDrO8KFe_iI-wGE0fV-1">
          <mxGeometry width="160" relative="1" as="geometry">
            <mxPoint x="-490" y="720" as="sourcePoint" />
            <mxPoint x="-400" y="910" as="targetPoint" />
          </mxGeometry>
        </mxCell>
        <mxCell id="1wmDrO8KFe_iI-wGE0fV-22" value="" style="endArrow=block;endSize=16;endFill=0;html=1;rounded=0;exitX=0.5;exitY=0;exitDx=0;exitDy=0;entryX=1;entryY=1;entryDx=0;entryDy=0;" edge="1" parent="1" source="1wmDrO8KFe_iI-wGE0fV-9" target="1wmDrO8KFe_iI-wGE0fV-1">
          <mxGeometry width="160" relative="1" as="geometry">
            <mxPoint x="-580" y="930" as="sourcePoint" />
            <mxPoint x="-360" y="910" as="targetPoint" />
          </mxGeometry>
        </mxCell>
        <mxCell id="1wmDrO8KFe_iI-wGE0fV-23" value="" style="endArrow=block;endSize=16;endFill=0;html=1;rounded=0;exitX=0.5;exitY=0;exitDx=0;exitDy=0;entryX=0.5;entryY=1;entryDx=0;entryDy=0;" edge="1" parent="1" source="1wmDrO8KFe_iI-wGE0fV-13" target="1wmDrO8KFe_iI-wGE0fV-1">
          <mxGeometry width="160" relative="1" as="geometry">
            <mxPoint x="-170" y="916" as="sourcePoint" />
            <mxPoint x="-380" y="910" as="targetPoint" />
          </mxGeometry>
        </mxCell>
        <mxCell id="1wmDrO8KFe_iI-wGE0fV-24" value="Sistema" style="swimlane;fontStyle=1;align=center;verticalAlign=top;childLayout=stackLayout;horizontal=1;startSize=26;horizontalStack=0;resizeParent=1;resizeParentMax=0;resizeLast=0;collapsible=1;marginBottom=0;whiteSpace=wrap;html=1;" vertex="1" parent="1">
          <mxGeometry x="-730" y="460" width="160" height="34" as="geometry" />
        </mxCell>
        <mxCell id="1wmDrO8KFe_iI-wGE0fV-26" value="" style="line;strokeWidth=1;fillColor=none;align=left;verticalAlign=middle;spacingTop=-1;spacingLeft=3;spacingRight=3;rotatable=0;labelPosition=right;points=[];portConstraint=eastwest;strokeColor=inherit;" vertex="1" parent="1wmDrO8KFe_iI-wGE0fV-24">
          <mxGeometry y="26" width="160" height="8" as="geometry" />
        </mxCell>
        <mxCell id="1wmDrO8KFe_iI-wGE0fV-34" value="" style="endArrow=none;html=1;rounded=0;entryX=0.5;entryY=1;entryDx=0;entryDy=0;exitX=0;exitY=0.5;exitDx=0;exitDy=0;" edge="1" parent="1" source="1wmDrO8KFe_iI-wGE0fV-5" target="hN8mHS7KvsiiEOYehRs0-2">
          <mxGeometry width="50" height="50" relative="1" as="geometry">
            <mxPoint x="-670" y="1059.0000000000002" as="sourcePoint" />
            <mxPoint x="-649.04" y="725.846" as="targetPoint" />
            <Array as="points">
              <mxPoint x="-780" y="960" />
              <mxPoint x="-780" y="840" />
              <mxPoint x="-649" y="840" />
            </Array>
          </mxGeometry>
        </mxCell>
        <mxCell id="1wmDrO8KFe_iI-wGE0fV-35" value="Da alta" style="text;html=1;align=center;verticalAlign=middle;resizable=0;points=[];autosize=1;strokeColor=none;fillColor=none;" vertex="1" parent="1">
          <mxGeometry x="-720" y="798" width="60" height="30" as="geometry" />
        </mxCell>
        <mxCell id="1wmDrO8KFe_iI-wGE0fV-36" value="1..N" style="text;html=1;align=center;verticalAlign=middle;resizable=0;points=[];autosize=1;strokeColor=none;fillColor=none;" vertex="1" parent="1">
          <mxGeometry x="-650" y="724" width="50" height="30" as="geometry" />
        </mxCell>
        <mxCell id="1wmDrO8KFe_iI-wGE0fV-37" value="1" style="text;html=1;align=center;verticalAlign=middle;resizable=0;points=[];autosize=1;strokeColor=none;fillColor=none;" vertex="1" parent="1">
          <mxGeometry x="-770" y="940" width="30" height="30" as="geometry" />
        </mxCell>
        <mxCell id="1wmDrO8KFe_iI-wGE0fV-41" value="" style="endArrow=none;html=1;rounded=0;exitX=0.5;exitY=0;exitDx=0;exitDy=0;entryX=0.508;entryY=1.095;entryDx=0;entryDy=0;entryPerimeter=0;" edge="1" parent="1" source="1wmDrO8KFe_iI-wGE0fV-1" target="1wmDrO8KFe_iI-wGE0fV-20">
          <mxGeometry width="50" height="50" relative="1" as="geometry">
            <mxPoint x="-360" y="690" as="sourcePoint" />
            <mxPoint x="-310" y="640" as="targetPoint" />
          </mxGeometry>
        </mxCell>
        <mxCell id="1wmDrO8KFe_iI-wGE0fV-42" value="Asocia" style="text;html=1;align=center;verticalAlign=middle;resizable=0;points=[];autosize=1;strokeColor=none;fillColor=none;" vertex="1" parent="1">
          <mxGeometry x="-420" y="688" width="60" height="30" as="geometry" />
        </mxCell>
        <mxCell id="1wmDrO8KFe_iI-wGE0fV-43" value="1...N" style="text;html=1;align=center;verticalAlign=middle;resizable=0;points=[];autosize=1;strokeColor=none;fillColor=none;" vertex="1" parent="1">
          <mxGeometry x="-410" y="646" width="50" height="30" as="geometry" />
        </mxCell>
        <mxCell id="1wmDrO8KFe_iI-wGE0fV-44" value="1...N" style="text;html=1;align=center;verticalAlign=middle;resizable=0;points=[];autosize=1;strokeColor=none;fillColor=none;" vertex="1" parent="1">
          <mxGeometry x="-410" y="740" width="50" height="30" as="geometry" />
        </mxCell>
        <mxCell id="1wmDrO8KFe_iI-wGE0fV-46" value="" style="endArrow=diamondThin;endFill=0;endSize=24;html=1;rounded=0;exitX=-0.028;exitY=1.009;exitDx=0;exitDy=0;exitPerimeter=0;entryX=0.004;entryY=0.45;entryDx=0;entryDy=0;entryPerimeter=0;" edge="1" parent="1" source="1wmDrO8KFe_iI-wGE0fV-53" target="hN8mHS7KvsiiEOYehRs0-8">
          <mxGeometry width="160" relative="1" as="geometry">
            <mxPoint x="-350" y="470" as="sourcePoint" />
            <mxPoint x="-180" y="540" as="targetPoint" />
          </mxGeometry>
        </mxCell>
        <mxCell id="1wmDrO8KFe_iI-wGE0fV-52" value="1...N" style="text;html=1;align=center;verticalAlign=middle;resizable=0;points=[];autosize=1;strokeColor=none;fillColor=none;" vertex="1" parent="1">
          <mxGeometry x="-205" y="588" width="50" height="30" as="geometry" />
        </mxCell>
        <mxCell id="1wmDrO8KFe_iI-wGE0fV-53" value="1...N" style="text;html=1;align=center;verticalAlign=middle;resizable=0;points=[];autosize=1;strokeColor=none;fillColor=none;" vertex="1" parent="1">
          <mxGeometry x="-280" y="585" width="50" height="30" as="geometry" />
        </mxCell>
        <mxCell id="1wmDrO8KFe_iI-wGE0fV-55" value="1...N" style="text;html=1;align=center;verticalAlign=middle;resizable=0;points=[];autosize=1;strokeColor=none;fillColor=none;" vertex="1" parent="1">
          <mxGeometry x="-690" y="530" width="50" height="30" as="geometry" />
        </mxCell>
        <mxCell id="1wmDrO8KFe_iI-wGE0fV-56" value="1" style="text;html=1;align=center;verticalAlign=middle;resizable=0;points=[];autosize=1;strokeColor=none;fillColor=none;" vertex="1" parent="1">
          <mxGeometry x="-680" y="494" width="30" height="30" as="geometry" />
        </mxCell>
        <mxCell id="1wmDrO8KFe_iI-wGE0fV-60" value="1...N" style="text;html=1;align=center;verticalAlign=middle;resizable=0;points=[];autosize=1;strokeColor=none;fillColor=none;" vertex="1" parent="1">
          <mxGeometry x="-490" y="600" width="50" height="30" as="geometry" />
        </mxCell>
        <mxCell id="1wmDrO8KFe_iI-wGE0fV-61" value="1" style="text;html=1;align=center;verticalAlign=middle;resizable=0;points=[];autosize=1;strokeColor=none;fillColor=none;" vertex="1" parent="1">
          <mxGeometry x="-561.35" y="600" width="30" height="30" as="geometry" />
        </mxCell>
        <mxCell id="1wmDrO8KFe_iI-wGE0fV-63" value="" style="endArrow=none;html=1;rounded=0;exitX=0.25;exitY=1;exitDx=0;exitDy=0;entryX=0.5;entryY=1;entryDx=0;entryDy=0;" edge="1" parent="1" source="hN8mHS7KvsiiEOYehRs0-2" target="1wmDrO8KFe_iI-wGE0fV-13">
          <mxGeometry width="50" height="50" relative="1" as="geometry">
            <mxPoint x="-500" y="840" as="sourcePoint" />
            <mxPoint x="-160" y="1080" as="targetPoint" />
            <Array as="points">
              <mxPoint x="-690" y="780" />
              <mxPoint x="-820" y="780" />
              <mxPoint x="-820" y="1140" />
              <mxPoint x="-360" y="1140" />
            </Array>
          </mxGeometry>
        </mxCell>
        <mxCell id="1wmDrO8KFe_iI-wGE0fV-65" value="Analiza" style="text;html=1;align=center;verticalAlign=middle;resizable=0;points=[];autosize=1;strokeColor=none;fillColor=none;" vertex="1" parent="1">
          <mxGeometry x="-820" y="1110" width="60" height="30" as="geometry" />
        </mxCell>
        <mxCell id="1wmDrO8KFe_iI-wGE0fV-66" value="1...N" style="text;html=1;align=center;verticalAlign=middle;resizable=0;points=[];autosize=1;strokeColor=none;fillColor=none;" vertex="1" parent="1">
          <mxGeometry x="-420" y="1080" width="50" height="30" as="geometry" />
        </mxCell>
        <mxCell id="1wmDrO8KFe_iI-wGE0fV-67" value="1...N" style="text;html=1;align=center;verticalAlign=middle;resizable=0;points=[];autosize=1;strokeColor=none;fillColor=none;" vertex="1" parent="1">
          <mxGeometry x="-740" y="724" width="50" height="30" as="geometry" />
        </mxCell>
        <mxCell id="1wmDrO8KFe_iI-wGE0fV-68" value="" style="endArrow=none;html=1;rounded=0;exitX=0.75;exitY=1;exitDx=0;exitDy=0;entryX=1;entryY=0.5;entryDx=0;entryDy=0;" edge="1" parent="1" source="1wmDrO8KFe_iI-wGE0fV-13">
          <mxGeometry width="50" height="50" relative="1" as="geometry">
            <mxPoint x="-315.0000000000001" y="1086" as="sourcePoint" />
            <mxPoint x="-279.9999999999999" y="639.0000000000001" as="targetPoint" />
            <Array as="points">
              <mxPoint x="-315" y="1140" />
              <mxPoint x="-30" y="1140" />
              <mxPoint x="-30" y="636" />
            </Array>
          </mxGeometry>
        </mxCell>
        <mxCell id="1wmDrO8KFe_iI-wGE0fV-69" value="1" style="text;html=1;align=center;verticalAlign=middle;resizable=0;points=[];autosize=1;strokeColor=none;fillColor=none;" vertex="1" parent="1">
          <mxGeometry x="-310" y="1080" width="30" height="30" as="geometry" />
        </mxCell>
        <mxCell id="1wmDrO8KFe_iI-wGE0fV-70" value="1...N" style="text;html=1;align=center;verticalAlign=middle;resizable=0;points=[];autosize=1;strokeColor=none;fillColor=none;" vertex="1" parent="1">
          <mxGeometry x="-280" y="640" width="50" height="30" as="geometry" />
        </mxCell>
        <mxCell id="1wmDrO8KFe_iI-wGE0fV-71" value="Crea" style="text;html=1;align=center;verticalAlign=middle;resizable=0;points=[];autosize=1;strokeColor=none;fillColor=none;" vertex="1" parent="1">
          <mxGeometry x="-80" y="1110" width="50" height="30" as="geometry" />
        </mxCell>
        <mxCell id="1wmDrO8KFe_iI-wGE0fV-72" value="" style="endArrow=none;html=1;rounded=0;exitX=0.75;exitY=0;exitDx=0;exitDy=0;entryX=0.93;entryY=1.006;entryDx=0;entryDy=0;entryPerimeter=0;" edge="1" parent="1" source="1wmDrO8KFe_iI-wGE0fV-9" target="1wmDrO8KFe_iI-wGE0fV-20">
          <mxGeometry width="50" height="50" relative="1" as="geometry">
            <mxPoint x="-340" y="860" as="sourcePoint" />
            <mxPoint x="-300" y="710" as="targetPoint" />
            <Array as="points">
              <mxPoint x="-130" y="710" />
              <mxPoint x="-290" y="710" />
            </Array>
          </mxGeometry>
        </mxCell>
        <mxCell id="1wmDrO8KFe_iI-wGE0fV-73" value="Realiza" style="text;html=1;align=center;verticalAlign=middle;resizable=0;points=[];autosize=1;strokeColor=none;fillColor=none;" vertex="1" parent="1">
          <mxGeometry x="-185" y="710" width="60" height="30" as="geometry" />
        </mxCell>
        <mxCell id="1wmDrO8KFe_iI-wGE0fV-74" value="1...N" style="text;html=1;align=center;verticalAlign=middle;resizable=0;points=[];autosize=1;strokeColor=none;fillColor=none;" vertex="1" parent="1">
          <mxGeometry x="-340" y="640" width="50" height="30" as="geometry" />
        </mxCell>
        <mxCell id="1wmDrO8KFe_iI-wGE0fV-75" value="1...N" style="text;html=1;align=center;verticalAlign=middle;resizable=0;points=[];autosize=1;strokeColor=none;fillColor=none;" vertex="1" parent="1">
          <mxGeometry x="-175" y="990" width="50" height="30" as="geometry" />
        </mxCell>
        <mxCell id="1wmDrO8KFe_iI-wGE0fV-78" value="" style="endArrow=diamondThin;endFill=1;endSize=24;html=1;rounded=0;entryX=0.958;entryY=0.035;entryDx=0;entryDy=0;entryPerimeter=0;exitX=0.778;exitY=1.005;exitDx=0;exitDy=0;exitPerimeter=0;" edge="1" parent="1" source="1wmDrO8KFe_iI-wGE0fV-55" target="1wmDrO8KFe_iI-wGE0fV-56">
          <mxGeometry width="160" relative="1" as="geometry">
            <mxPoint x="-610" y="500" as="sourcePoint" />
            <mxPoint x="-450" y="500" as="targetPoint" />
          </mxGeometry>
        </mxCell>
        <mxCell id="1wmDrO8KFe_iI-wGE0fV-79" value="" style="endArrow=diamondThin;endFill=1;endSize=24;html=1;rounded=0;entryX=1;entryY=0.5;entryDx=0;entryDy=0;exitX=1.018;exitY=-0.002;exitDx=0;exitDy=0;exitPerimeter=0;" edge="1" parent="1" source="1wmDrO8KFe_iI-wGE0fV-60" target="hN8mHS7KvsiiEOYehRs0-3">
          <mxGeometry width="160" relative="1" as="geometry">
            <mxPoint x="-510" y="630" as="sourcePoint" />
            <mxPoint x="-510" y="565" as="targetPoint" />
          </mxGeometry>
        </mxCell>
      </root>
    </mxGraphModel>
  </diagram>
</mxfile>
